<svg xmlns="http://www.w3.org/2000/svg" viewBox="0 0 20.01 20"><defs><style>.cls-1{fill:#898888;}.cls-2{fill:#777676;}</style></defs><title>shop-iconsearchIcon</title><g id="Layer_2" data-name="Layer 2"><g id="Layer_1-2" data-name="Layer 1"><path class="cls-1" d="M5,2H19a1,1,0,0,1,1,1,1,1,0,0,1-.11.46l-4,8A1,1,0,0,1,15,12H5a1,1,0,0,1-1-1V3A1,1,0,0,1,5,2Z"/><path class="cls-2" d="M15.73,17a2,2,0,1,1-3.46,0H6.73a2,2,0,1,1-3.42-.08A3,3,0,0,1,3,11.17V2H1A1,1,0,0,1,1,0H4A1,1,0,0,1,5,1V11H16a1,1,0,0,1,0,2H4a1,1,0,0,0,0,2H16a1,1,0,0,1,0,2Z"/></g></g></svg>